<?xml version="1.0" encoding="UTF-8"?>
<svg width="18px" height="18px" viewBox="0 0 18 18" version="1.1" xmlns="http://www.w3.org/2000/svg" xmlns:xlink="http://www.w3.org/1999/xlink">
    <title>icon-topics</title>
    <g id="icon-topics" stroke="none" stroke-width="1" fill="none" fill-rule="evenodd">
        <path d="M4.5,2.5 L13.5,2.5 C14.0522847,2.5 14.5,2.94771525 14.5,3.5 L14.5,14.6577289 C14.5,14.9338713 14.2761424,15.1577289 14,15.1577289 C13.9163405,15.1577289 13.8340182,15.1367372 13.7605739,15.0966767 L9.47885213,12.7611921 C9.18037464,12.5983862 8.81962536,12.5983862 8.52114787,12.7611921 L4.23942607,15.0966767 C3.9970019,15.2289081 3.69328358,15.1395791 3.56105221,14.897155 C3.52099169,14.8237107 3.5,14.7413884 3.5,14.6577289 L3.5,3.5 C3.5,2.94771525 3.94771525,2.5 4.5,2.5 Z" id="矩形" stroke="currentColor" stroke-width="1.15" stroke-linejoin="bevel"></path>
        <rect id="矩形" fill="currentColor" x="6" y="6" width="6" height="1.15" rx="0.5"></rect>
    </g>
</svg>
